<?plantuml 1.2026.2beta2?><svg xmlns="http://www.w3.org/2000/svg" xmlns:xlink="http://www.w3.org/1999/xlink" contentStyleType="text/css" data-diagram-type="DESCRIPTION" height="954px" preserveAspectRatio="none" style="width:742px;height:954px;background:#FFFFFF;" version="1.1" viewBox="0 0 742 954" width="742px" zoomAndPan="magnify"><defs/><g><!--cluster StuFlux System--><g class="cluster" data-qualified-name="StuFlux System" data-source-line="19" id="ent0006"><rect fill="none" height="834" rx="2.5" ry="2.5" style="stroke:#181818;stroke-width:1;" width="513.23" x="223.46" y="114.72"/><text fill="#000000" font-family="sans-serif" font-size="14" font-weight="bold" lengthAdjust="spacing" textLength="123.293" x="418.4285" y="129.7151">StuFlux System</text></g><!--entity UC_Browse--><g class="entity" data-qualified-name="StuFlux System.UC_Browse" data-source-line="20" id="ent0007"><ellipse cx="338.5252" cy="851.721" fill="#ECFEFF" rx="71.1052" ry="16.621" style="stroke:#0EA5E9;stroke-width:2;"/><text fill="#000000" font-family="sans-serif" font-size="14" lengthAdjust="spacing" textLength="109.1494" x="283.9505" y="856.3695">Browse Listings</text></g><!--entity UC_Search--><g class="entity" data-qualified-name="StuFlux System.UC_Search" data-source-line="21" id="ent0008"><ellipse cx="338.5277" cy="649.7215" fill="#ECFEFF" rx="69.9577" ry="16.3915" style="stroke:#0EA5E9;stroke-width:2;"/><text fill="#000000" font-family="sans-serif" font-size="14" lengthAdjust="spacing" textLength="106.2715" x="285.392" y="654.37">Search Listings</text></g><!--entity UC_View--><g class="entity" data-qualified-name="StuFlux System.UC_View" data-source-line="22" id="ent0009"><ellipse cx="338.5323" cy="718.7205" fill="#ECFEFF" rx="76.7023" ry="17.7405" style="stroke:#0EA5E9;stroke-width:2;"/><text fill="#000000" font-family="sans-serif" font-size="14" lengthAdjust="spacing" textLength="122.835" x="277.1148" y="723.3689">View Item Details</text></g><!--entity UC_CreateListing--><g class="entity" data-qualified-name="StuFlux System.UC_CreateListing" data-source-line="23" id="ent0010"><ellipse cx="338.5344" cy="514.7189" fill="#ECFEFF" rx="66.4944" ry="15.6989" style="stroke:#0EA5E9;stroke-width:2;"/><text fill="#000000" font-family="sans-serif" font-size="14" lengthAdjust="spacing" textLength="97.3984" x="289.8352" y="519.3673">Create Listing</text></g><!--entity UC_ManageListing--><g class="entity" data-qualified-name="StuFlux System.UC_ManageListing" data-source-line="24" id="ent0011"><ellipse cx="338.5324" cy="367.7245" fill="#ECFEFF" rx="69.9224" ry="16.3845" style="stroke:#0EA5E9;stroke-width:2;"/><text fill="#000000" font-family="sans-serif" font-size="14" lengthAdjust="spacing" textLength="106.1826" x="285.4411" y="372.3729">Manage Listing</text></g><!--entity UC_ManageProfile--><g class="entity" data-qualified-name="StuFlux System.UC_ManageProfile" data-source-line="25" id="ent0012"><ellipse cx="338.5273" cy="581.7235" fill="#ECFEFF" rx="69.1173" ry="16.2235" style="stroke:#0EA5E9;stroke-width:2;"/><text fill="#000000" font-family="sans-serif" font-size="14" lengthAdjust="spacing" textLength="104.1455" x="286.4545" y="586.3719">Manage Profile</text></g><!--entity UC_SignUp--><g class="entity" data-qualified-name="StuFlux System.UC_SignUp" data-source-line="26" id="ent0013"><ellipse cx="338.5287" cy="917.7236" fill="#ECFEFF" rx="41.2687" ry="14.5236" style="stroke:#0EA5E9;stroke-width:2;"/><text fill="#000000" font-family="sans-serif" font-size="14" lengthAdjust="spacing" textLength="54.1201" x="311.4686" y="922.3721">Sign Up</text></g><!--entity UC_Login--><g class="entity" data-qualified-name="StuFlux System.UC_Login" data-source-line="27" id="ent0014"><ellipse cx="338.5304" cy="785.7236" fill="#ECFEFF" rx="29.8804" ry="14.5236" style="stroke:#0EA5E9;stroke-width:2;"/><text fill="#000000" font-family="sans-serif" font-size="14" lengthAdjust="spacing" textLength="38.0146" x="319.5231" y="790.3721">Login</text></g><!--entity UC_RequestBooking--><g class="entity" data-qualified-name="StuFlux System.UC_RequestBooking" data-source-line="28" id="ent0015"><ellipse cx="338.5312" cy="166.7162" fill="#ECFEFF" rx="74.8812" ry="17.3762" style="stroke:#0EA5E9;stroke-width:2;"/><text fill="#000000" font-family="sans-serif" font-size="14" lengthAdjust="spacing" textLength="118.4395" x="279.3114" y="171.3647">Request Booking</text></g><!--entity UC_CheckAvail--><g class="entity" data-qualified-name="StuFlux System.UC_CheckAvail" data-source-line="29" id="ent0016"><ellipse cx="641.6488" cy="238.7218" fill="#ECFEFF" rx="77.4588" ry="17.8918" style="stroke:#0EA5E9;stroke-width:2;"/><text fill="#000000" font-family="sans-serif" font-size="14" lengthAdjust="spacing" textLength="124.6465" x="579.3256" y="243.3702">Check Availability</text></g><!--entity UC_ConfirmReject--><g class="entity" data-qualified-name="StuFlux System.UC_ConfirmReject" data-source-line="30" id="ent0017"><ellipse cx="338.5344" cy="441.7249" fill="#ECFEFF" rx="99.0744" ry="22.2149" style="stroke:#0EA5E9;stroke-width:2;"/><text fill="#000000" font-family="sans-serif" font-size="14" lengthAdjust="spacing" textLength="174.0156" x="251.5266" y="446.3733">Confirm / Reject Booking</text></g><!--entity UC_UpdateCalendar--><g class="entity" data-qualified-name="StuFlux System.UC_UpdateCalendar" data-source-line="31" id="ent0018"><ellipse cx="641.6532" cy="441.7186" fill="#ECFEFF" rx="74.7432" ry="17.3486" style="stroke:#0EA5E9;stroke-width:2;"/><text fill="#000000" font-family="sans-serif" font-size="14" lengthAdjust="spacing" textLength="118.1045" x="582.601" y="446.3671">Update Calendar</text></g><!--entity UC_CompleteBooking--><g class="entity" data-qualified-name="StuFlux System.UC_CompleteBooking" data-source-line="32" id="ent0019"><ellipse cx="641.6521" cy="167.7184" fill="#ECFEFF" rx="79.0421" ry="18.2084" style="stroke:#0EA5E9;stroke-width:2;"/><text fill="#000000" font-family="sans-serif" font-size="14" lengthAdjust="spacing" textLength="128.4131" x="577.4456" y="172.3669">Complete Booking</text></g><!--entity UC_SendMessage--><g class="entity" data-qualified-name="StuFlux System.UC_SendMessage" data-source-line="33" id="ent0020"><ellipse cx="338.5329" cy="300.7226" fill="#ECFEFF" rx="67.9129" ry="15.9826" style="stroke:#0EA5E9;stroke-width:2;"/><text fill="#000000" font-family="sans-serif" font-size="14" lengthAdjust="spacing" textLength="101.0693" x="287.9982" y="305.371">Send Message</text></g><!--entity UC_WriteReview--><g class="entity" data-qualified-name="StuFlux System.UC_WriteReview" data-source-line="34" id="ent0021"><ellipse cx="338.531" cy="234.7162" fill="#ECFEFF" rx="64.681" ry="15.3362" style="stroke:#0EA5E9;stroke-width:2;"/><text fill="#000000" font-family="sans-serif" font-size="14" lengthAdjust="spacing" textLength="92.6201" x="292.221" y="239.3646">Write Review</text></g><!--entity Guest--><g class="entity" data-qualified-name="Guest" data-source-line="14" id="ent0002"><ellipse cx="108.8" cy="796.57" fill="#EEF2FF" rx="16" ry="16" style="stroke:#4F46E5;stroke-width:0.5;"/><path d="M108.8,816.57 C112.8,816.57 115.8,816.57 119.8,812.57 C127.8,812.57 135.8,820.57 135.8,828.57 L135.8,832.57 C135.8,836.57 131.8,840.57 127.8,840.57 L89.8,840.57 C85.8,840.57 81.8,836.57 81.8,832.57 L81.8,828.57 C81.8,820.57 89.8,812.57 97.8,812.57 C101.8,816.57 104.8,816.57 108.8,816.57" fill="#EEF2FF" style="stroke:#4F46E5;stroke-width:0.5;"/><text fill="#000000" font-family="sans-serif" font-size="14" lengthAdjust="spacing" textLength="41.1182" x="88.2409" y="854.0651">Guest</text></g><!--entity AuthUser--><g class="entity" data-qualified-name="AuthUser" data-source-line="15" id="ent0003"><ellipse cx="108.8019" cy="550.57" fill="#EEF2FF" rx="16" ry="16" style="stroke:#4F46E5;stroke-width:0.5;"/><path d="M108.8019,570.57 C112.8019,570.57 115.8019,570.57 119.8019,566.57 C127.8019,566.57 135.8019,574.57 135.8019,582.57 L135.8019,586.57 C135.8019,590.57 131.8019,594.57 127.8019,594.57 L89.8019,594.57 C85.8019,594.57 81.8019,590.57 81.8019,586.57 L81.8019,582.57 C81.8019,574.57 89.8019,566.57 97.8019,566.57 C101.8019,570.57 104.8019,570.57 108.8019,570.57" fill="#EEF2FF" style="stroke:#4F46E5;stroke-width:0.5;"/><text fill="#000000" font-family="sans-serif" font-size="14" lengthAdjust="spacing" textLength="135.3037" x="41.15" y="608.0651">Authenticated User</text></g><!--entity Renter--><g class="entity" data-qualified-name="Renter" data-source-line="16" id="ent0004"><ellipse cx="108.8" cy="197.57" fill="#EEF2FF" rx="16" ry="16" style="stroke:#4F46E5;stroke-width:0.5;"/><path d="M108.8,217.57 C112.8,217.57 115.8,217.57 119.8,213.57 C127.8,213.57 135.8,221.57 135.8,229.57 L135.8,233.57 C135.8,237.57 131.8,241.57 127.8,241.57 L89.8,241.57 C85.8,241.57 81.8,237.57 81.8,233.57 L81.8,229.57 C81.8,221.57 89.8,213.57 97.8,213.57 C101.8,217.57 104.8,217.57 108.8,217.57" fill="#EEF2FF" style="stroke:#4F46E5;stroke-width:0.5;"/><text fill="#000000" font-family="sans-serif" font-size="14" lengthAdjust="spacing" textLength="47.0723" x="85.2639" y="255.0651">Renter</text></g><!--entity Owner--><g class="entity" data-qualified-name="Owner" data-source-line="17" id="ent0005"><ellipse cx="108.8" cy="361.57" fill="#EEF2FF" rx="16" ry="16" style="stroke:#4F46E5;stroke-width:0.5;"/><path d="M108.8,381.57 C112.8,381.57 115.8,381.57 119.8,377.57 C127.8,377.57 135.8,385.57 135.8,393.57 L135.8,397.57 C135.8,401.57 131.8,405.57 127.8,405.57 L89.8,405.57 C85.8,405.57 81.8,401.57 81.8,397.57 L81.8,393.57 C81.8,385.57 89.8,377.57 97.8,377.57 C101.8,381.57 104.8,381.57 108.8,381.57" fill="#EEF2FF" style="stroke:#4F46E5;stroke-width:0.5;"/><text fill="#000000" font-family="sans-serif" font-size="14" lengthAdjust="spacing" textLength="45.7119" x="85.944" y="419.0651">Owner</text></g><!--link Guest to UC_Browse--><g class="link" data-entity-1="ent0002" data-entity-2="ent0007" data-link-type="association" data-source-line="37" id="lnk22"><path d="M136.77,824.68 C156.1,828.79 182.78,834.14 206.46,837.72 C227.5,840.91 250.55,843.62 271.38,845.8" fill="none" id="Guest-UC_Browse" style="stroke:#0F172A;stroke-width:1.2;"/></g><!--link Guest to UC_Search--><g class="link" data-entity-1="ent0002" data-entity-2="ent0008" data-link-type="association" data-source-line="38" id="lnk23"><path d="M130.98,779.67 C149.45,749.21 178.96,708.11 215.46,683.72 C234.02,671.31 257.05,663.4 278.09,658.37" fill="none" id="Guest-UC_Search" style="stroke:#0F172A;stroke-width:1.2;"/></g><!--link Guest to UC_View--><g class="link" data-entity-1="ent0002" data-entity-2="ent0009" data-link-type="association" data-source-line="39" id="lnk24"><path d="M136.48,799.47 C157.2,785.24 187.08,766.23 215.46,753.72 C236.64,744.38 260.98,736.81 282.33,731.14" fill="none" id="Guest-UC_View" style="stroke:#0F172A;stroke-width:1.2;"/></g><!--link Guest to UC_SignUp--><g class="link" data-entity-1="ent0002" data-entity-2="ent0013" data-link-type="association" data-source-line="40" id="lnk25"><path d="M136.74,839.11 C157.35,853.87 186.98,873.32 215.46,885.72 C243.08,897.75 276.24,906.09 301.03,911.23" fill="none" id="Guest-UC_SignUp" style="stroke:#0F172A;stroke-width:1.2;"/></g><!--link Guest to UC_Login--><g class="link" data-entity-1="ent0002" data-entity-2="ent0014" data-link-type="association" data-source-line="41" id="lnk26"><path d="M136.37,814.87 C179.67,808.6 265.04,796.22 309.35,789.8" fill="none" id="Guest-UC_Login" style="stroke:#0F172A;stroke-width:1.2;"/></g><!--link AuthUser to UC_Browse--><g class="link" data-entity-1="ent0003" data-entity-2="ent0007" data-link-type="association" data-source-line="43" id="lnk27"><path d="M122.06,611.8 C142.16,673.52 183.09,789.47 215.46,817.72 C231.45,831.68 252.73,839.95 273.04,844.83" fill="none" id="AuthUser-UC_Browse" style="stroke:#0F172A;stroke-width:1.2;"/></g><!--link AuthUser to UC_Search--><g class="link" data-entity-1="ent0003" data-entity-2="ent0008" data-link-type="association" data-source-line="44" id="lnk28"><path d="M176.76,578.59 C187.94,582.03 198.72,587.15 207.46,594.72 C215,601.26 208.07,608.99 215.46,615.72 C231.31,630.17 252.79,638.55 273.32,643.38" fill="none" id="AuthUser-UC_Search" style="stroke:#0F172A;stroke-width:1.2;"/></g><!--link AuthUser to UC_View--><g class="link" data-entity-1="ent0003" data-entity-2="ent0009" data-link-type="association" data-source-line="45" id="lnk29"><path d="M153.75,611.49 C171.56,628.39 191.61,649.05 207.46,669.72 C211.82,675.41 209.82,679.3 215.46,683.72 C231.59,696.38 252.11,704.46 271.7,709.62" fill="none" id="AuthUser-UC_View" style="stroke:#0F172A;stroke-width:1.2;"/></g><!--link AuthUser to UC_Login--><g class="link" data-entity-1="ent0003" data-entity-2="ent0014" data-link-type="association" data-source-line="46" id="lnk30"><path d="M122.38,611.69 C137.75,653.11 167.79,717.53 215.46,753.72 C242.59,774.32 281.8,781.7 308.41,784.32" fill="none" id="AuthUser-UC_Login" style="stroke:#0F172A;stroke-width:1.2;"/></g><!--link AuthUser to UC_ManageProfile--><g class="link" data-entity-1="ent0003" data-entity-2="ent0012" data-link-type="association" data-source-line="47" id="lnk31"><path d="M176.89,557.79 C186.76,556.1 196.84,554.66 206.46,553.72 C238.88,550.56 275.04,559.23 301.15,567.74" fill="none" id="AuthUser-UC_ManageProfile" style="stroke:#0F172A;stroke-width:1.2;"/></g><!--link Renter to UC_RequestBooking--><g class="link" data-entity-1="ent0004" data-entity-2="ent0015" data-link-type="association" data-source-line="49" id="lnk32"><path d="M136.37,213.54 C172.51,205.13 237.96,189.89 284.39,179.09" fill="none" id="Renter-UC_RequestBooking" style="stroke:#0F172A;stroke-width:1.2;"/></g><!--link Renter to UC_SendMessage--><g class="link" data-entity-1="ent0004" data-entity-2="ent0020" data-link-type="association" data-source-line="50" id="lnk33"><path d="M136.66,233.39 C157.72,243.75 187.97,257.83 215.46,267.72 C239.21,276.26 266.26,283.79 288.85,289.49" fill="none" id="Renter-UC_SendMessage" style="stroke:#0F172A;stroke-width:1.2;"/></g><!--link Renter to UC_WriteReview--><g class="link" data-entity-1="ent0004" data-entity-2="ent0021" data-link-type="association" data-source-line="51" id="lnk34"><path d="M136.37,221.47 C170.28,223.7 230,227.64 275.59,230.64" fill="none" id="Renter-UC_WriteReview" style="stroke:#0F172A;stroke-width:1.2;"/></g><!--link Renter to UC_CompleteBooking--><g class="link" data-entity-1="ent0004" data-entity-2="ent0019" data-link-type="association" data-source-line="52" id="lnk35"><path d="M124.98,180.7 C141.32,144.76 171.09,93.65 215.46,70.72 C340.68,6 400.98,20.3 532.6,70.72 C573.8,86.5 609.16,126.03 627.41,149.47" fill="none" id="Renter-UC_CompleteBooking" style="stroke:#0F172A;stroke-width:1.2;"/></g><!--link Owner to UC_CreateListing--><g class="link" data-entity-1="ent0005" data-entity-2="ent0010" data-link-type="association" data-source-line="54" id="lnk36"><path d="M136.78,415.86 C156.5,437.42 185.04,464.87 215.46,481.72 C236.1,493.16 260.93,500.81 282.79,505.84" fill="none" id="Owner-UC_CreateListing" style="stroke:#0F172A;stroke-width:1.2;"/></g><!--link Owner to UC_ManageListing--><g class="link" data-entity-1="ent0005" data-entity-2="ent0011" data-link-type="association" data-source-line="55" id="lnk37"><path d="M136.37,381.85 C169.22,379.55 226.31,375.53 271.29,372.37" fill="none" id="Owner-UC_ManageListing" style="stroke:#0F172A;stroke-width:1.2;"/></g><!--link Owner to UC_ConfirmReject--><g class="link" data-entity-1="ent0005" data-entity-2="ent0017" data-link-type="association" data-source-line="56" id="lnk38"><path d="M136.37,390.49 C169.34,398.88 226.71,413.5 271.77,424.97" fill="none" id="Owner-UC_ConfirmReject" style="stroke:#0F172A;stroke-width:1.2;"/></g><!--link Owner to UC_SendMessage--><g class="link" data-entity-1="ent0005" data-entity-2="ent0020" data-link-type="association" data-source-line="57" id="lnk39"><path d="M136.6,369.41 C157.62,358.58 187.85,343.89 215.46,333.72 C239.04,325.03 265.95,317.51 288.49,311.86" fill="none" id="Owner-UC_SendMessage" style="stroke:#0F172A;stroke-width:1.2;"/></g><!--link Owner to UC_WriteReview--><g class="link" data-entity-1="ent0005" data-entity-2="ent0021" data-link-type="association" data-source-line="58" id="lnk40"><path d="M136.21,344.71 C155.38,319.25 183.49,287.23 215.46,267.72 C235.69,255.37 260.58,247.56 282.6,242.67" fill="none" id="Owner-UC_WriteReview" style="stroke:#0F172A;stroke-width:1.2;"/></g><!--link Owner to UC_CompleteBooking--><g class="link" data-entity-1="ent0005" data-entity-2="ent0019" data-link-type="association" data-source-line="59" id="lnk41"><path d="M136.69,346.2 C150.13,326.07 165.77,300.39 176.46,275.72 C202.81,214.88 162.8,172.01 215.46,131.72 C333.86,41.12 528.87,115.21 606.87,151.05" fill="none" id="Owner-UC_CompleteBooking" style="stroke:#0F172A;stroke-width:1.2;"/></g><!--link Renter to AuthUser--><g class="link" data-entity-1="ent0004" data-entity-2="ent0003" data-link-type="extension" data-source-line="61" id="lnk42"><path d="M80.97,250.6 C61.4,274.51 36.86,309.48 26.15,345.22 C6,412.44 37.0652,473.9768 68.2252,518.9268" fill="none" id="Renter-to-AuthUser" style="stroke:#0F172A;stroke-width:1.2;"/><polygon fill="none" points="78.48,533.72,73.1562,515.5085,63.2941,522.3451,78.48,533.72" style="stroke:#0F172A;stroke-width:1.2;"/></g><!--link Owner to AuthUser--><g class="link" data-entity-1="ent0005" data-entity-2="ent0003" data-link-type="extension" data-source-line="62" id="lnk43"><path d="M108.8,422.65 C108.8,459.63 108.8,478.61 108.8,515.59" fill="none" id="Owner-to-AuthUser" style="stroke:#0F172A;stroke-width:1.2;"/><polygon fill="none" points="108.8,533.59,114.8,515.59,102.8,515.59,108.8,533.59" style="stroke:#0F172A;stroke-width:1.2;"/></g><!--link UC_RequestBooking to UC_CheckAvail--><g class="link" data-entity-1="ent0015" data-entity-2="ent0016" data-link-type="dependency" data-source-line="64" id="lnk44"><path d="M396.33,178.19 C434.9,186.2 486.98,197.43 532.6,208.72 C552.16,213.56 567.7949,217.7626 586.3549,222.9926" fill="none" id="UC_RequestBooking-to-UC_CheckAvail" style="stroke:#0F172A;stroke-width:1.2;stroke-dasharray:7,7;"/><polygon fill="#0F172A" points="592.13,224.62,584.5523,218.3289,587.3174,223.2639,582.3825,226.029,592.13,224.62" style="stroke:#0F172A;stroke-width:1.2;"/><text fill="#000000" font-family="sans-serif" font-size="13" lengthAdjust="spacing" textLength="63.0068" x="468.6" y="190.7869">&#171;include&#187;</text></g><!--link UC_ConfirmReject to UC_UpdateCalendar--><g class="link" data-entity-1="ent0017" data-entity-2="ent0018" data-link-type="dependency" data-source-line="65" id="lnk45"><path d="M437.71,441.72 C479.59,441.72 521.64,441.72 560.47,441.72" fill="none" id="UC_ConfirmReject-to-UC_UpdateCalendar" style="stroke:#0F172A;stroke-width:1.2;stroke-dasharray:7,7;"/><polygon fill="#0F172A" points="566.47,441.72,557.47,437.72,561.47,441.72,557.47,445.72,566.47,441.72" style="stroke:#0F172A;stroke-width:1.2;"/><text fill="#000000" font-family="sans-serif" font-size="13" lengthAdjust="spacing" textLength="63.0068" x="468.6" y="437.7869">&#171;include&#187;</text></g><!--link UC_WriteReview to UC_CompleteBooking--><g class="link" data-entity-1="ent0021" data-entity-2="ent0019" data-link-type="dependency" data-source-line="66" id="lnk46"><path d="M394.3,242.91 C434.05,246.6 488.37,246.88 532.6,229.72 C549.05,223.34 547.78,213.29 562.6,203.72 C574.39,196.11 582.5681,191.7015 595.1281,186.0515" fill="none" id="UC_WriteReview-to-UC_CompleteBooking" style="stroke:#0F172A;stroke-width:1.2;stroke-dasharray:7,7;"/><polygon fill="#0F172A" points="600.6,183.59,590.7512,183.6343,596.0401,185.6412,594.0332,190.9301,600.6,183.59" style="stroke:#0F172A;stroke-width:1.2;"/><text fill="#000000" font-family="sans-serif" font-size="13" lengthAdjust="spacing" textLength="61.1851" x="469.6" y="225.7869">&#171;extend&#187;</text></g><?plantuml-src VLLTRzCm57tthxWgpojRjO50KwMs28Iq2TIky8XCSfEQkdQndNKLyDznOgVrTGPzQEjppltm_KWaLWwS1YFgZODI62oSq8hPhL1xRlWEx8QN-Y1K3HMN5XEciLXmYtDjIZGBBRM15vV8R_3DCo9UR6kZ6rL68HOLLjM_l3riHB5LQ2rCXf9bS6CK6fXS9Zmld3OadUlg-XNU32I3PB2Qa6GwsSeT9G8_eDMxzDubLhoHxW6Vt4oAMkrGEIZy5vhKXJ7wSBx7rJYzoQmb-v9LLwyddB4k9dneqBhuVpHhtCRx5GLtMCBQeXa1jz32xI7AbY5qE7mw-B8mrlQHgzhdFrgvvhridc1rj0vt8_Z5m7zYBM4qzvdutpjXdM-oxGAi5zy2JAKhvARO3AG1fj8l0W_mqSU3T-Yua2TnIr3fmg2_Nk-rrmKqWjJWdYjU3mm2-Z-3pqPNGY8rY61sKTzLMEzF5_J7zPvAxdGjL2_e3fHVui-sap3NUfja6U68PeNOOB65sQCl5_ykf737Kp5QfYCo2wqgONRmqi_03z_nF5ha0qbDr_kohVg2IrGbDxr5W7iqZxRRI_H6WoW1V_PIA-y8xlq6-5gV1qQL4QBYhqPuzqjyz4FIYpiiGEmFOzr-mCL5CgCf56SnXRg98vhGpXGA3MJzOb7_6Hf3P6WN9SE2rmoaOyV2yaOkcmx2fKKZH5eWGkHzOTspeIV9VgKCNIHYGyOfPTBaKZpDZNhAKkiJ_pqzFzsYGGgnGP5WF9xI5O6tS7ihL26R4gTJbkVT6z197nebgPzYqAmx6_yIy0wcqxy0?></g></svg>